<svg xmlns="http://www.w3.org/2000/svg" width="350" height="254.635" viewBox="0 0 350 254.635"><g transform="translate(-0.01 0)"><path d="M407.932,311.993c-8.669,17.89-26.281,29.852-44.527,37.741a164.285,164.285,0,0,1-45.842,12.233q-4.537.539-9.1.836a176.557,176.557,0,0,1-23.36-.026q-7.017-.467-13.986-1.492a176.4,176.4,0,0,1-46.762-13.617q-6.443-2.9-12.625-6.335a161.514,161.514,0,0,1-19.734-12.906q-2.076-1.586-4.1-3.241l-.555-.454c-1.061-.875-2.112-1.769-3.179-2.637a46.218,46.218,0,0,0-5.634-4.041c-.134-.078-.268-.157-.4-.232-.366-.212-.738-.411-1.116-.6a25.559,25.559,0,0,0-2.4-1.058,31.379,31.379,0,0,0-11.9-1.87c-.679,0-1.358.046-2.04.091h0c-.953.065-1.909.163-2.862.287l-.353.049a64.881,64.881,0,0,0-8.986,1.929c-4.55,1.306-9.018,2.938-13.516,4.41h0c-1.909.63-3.822,1.231-5.751,1.769l-.424.117a62.958,62.958,0,0,1-8.359,1.75,46.577,46.577,0,0,1-19.13-1.541l-.215-.062-.4-.117-.545-.17q-1.371-.431-2.719-.943l-.545-.209q-1.306-.5-2.556-1.08l-.545-.248q-1.306-.607-2.556-1.283c-.3-.157-.6-.326-.891-.486q-1.332-.744-2.611-1.56-1.358-.865-2.657-1.8-.6-.431-1.188-.885a52.664,52.664,0,0,1-6.322-5.7c-.108-.108-.209-.219-.31-.326-.519-.561-1.028-1.133-1.521-1.717-.183-.215-.366-.431-.545-.653q-.878-1.071-1.694-2.19c-.082-.108-.16-.219-.238-.326a47.194,47.194,0,0,1-5.506-9.955c-.046-.108-.088-.219-.127-.326q-.653-1.681-1.191-3.417c-.147-.483-.287-.979-.411-1.462-.042-.144-.082-.29-.118-.434-1.8-7.093-2.007-14.466-2.007-21.8v-2.562c.052-11.858.235-23.918,1.984-35.613a1.487,1.487,0,0,1,.036-.242,111.222,111.222,0,0,1,2.386-11.691,86.249,86.249,0,0,1,4.018-11.848c4.024-9.465,9.877-18.079,16.375-26.063A146.92,146.92,0,0,1,115.476,152.2q2.154-1.576,4.367-3.062l.682-.447c.238-.16.477-.326.715-.467h0c.49-.326.979-.633,1.475-.943l.555-.346,1.058-.653.326-.186.565-.326.558-.326q.979-.578,1.981-1.129,4.279-2.386,8.76-4.361,1.322-.584,2.66-1.126a93.819,93.819,0,0,1,12.452-4.083q2.35-.594,4.729-1.044,2.807-.542,5.643-.9a89.553,89.553,0,0,1,9.067-.676,92.8,92.8,0,0,1,59.564,19.721c6.658,5.3,12.641,11.577,20.119,15.641,6.528,3.538,14.169,5,21.16,2.219,5.777-2.3,9.537-3.443,16.026-3.094a134.331,134.331,0,0,1,39.268,8.212c.509.186,1.018.379,1.524.571,32.871,12.582,61.134,37.568,75.815,69.675q.581,1.273,1.133,2.565C414.437,268.083,417.6,292.057,407.932,311.993Z" transform="translate(-63.85 -108.542)" fill="#f50057"/><path d="M129.171,309.439V433.195l-.424.117a62.958,62.958,0,0,1-8.359,1.749,46.577,46.577,0,0,1-19.13-1.541l-.215-.062-.4-.118-.545-.17q-1.371-.431-2.719-.943l-.545-.209q-1.306-.5-2.556-1.08l-.545-.248q-1.306-.607-2.556-1.283c-.3-.157-.6-.326-.891-.486q-1.332-.744-2.611-1.56-1.358-.865-2.657-1.8-.6-.431-1.188-.885a52.671,52.671,0,0,1-6.322-5.7c-.108-.108-.209-.219-.31-.326-.519-.561-1.028-1.133-1.521-1.717-.183-.215-.366-.431-.545-.653q-.878-1.071-1.694-2.19c-.082-.108-.16-.219-.238-.326a47.193,47.193,0,0,1-5.506-9.955c-.046-.108-.088-.219-.127-.326q-.653-1.681-1.191-3.417c-.147-.483-.287-.979-.411-1.462-.042-.144-.082-.29-.118-.434-1.8-7.093-2.007-14.466-2.007-21.8V373.8c.052-11.858.235-23.918,1.984-35.613a1.486,1.486,0,0,1,.036-.242,111.228,111.228,0,0,1,2.386-11.691h33.331V309.439h6.645V295.93h14.3v13.509Z" transform="translate(-63.83 -218.901)" fill="#f50057" opacity="0.1"/><path d="M636.473,400.17c-8.669,17.89-26.281,29.852-44.527,37.741A164.284,164.284,0,0,1,546.1,450.144q-4.537.539-9.1.836a176.557,176.557,0,0,1-23.36-.026q-7.017-.467-13.986-1.492a176.4,176.4,0,0,1-46.762-13.617q-6.443-2.9-12.625-6.335A161.514,161.514,0,0,1,420.534,416.6q-2.076-1.586-4.1-3.241l-.555-.454c-1.061-.875-2.112-1.769-3.179-2.637a46.22,46.22,0,0,0-5.634-4.041c-.134-.078-.268-.157-.4-.232-.366-.212-.738-.411-1.116-.6a25.567,25.567,0,0,0-2.4-1.058V353.715h60.575v11.27H490.31V282.544H521.6V315.51h15.478V295.992h12.788v-20.85h5.875V263c.509.186,1.018.379,1.524.571v11.571h5.718V296h12.778v19.518h18.843v74.362h29.95v-54.08h9.651C642.978,356.261,646.137,380.234,636.473,400.17Z" transform="translate(-292.391 -196.719)" fill="#b1003f"/><rect width="13.986" height="13.986" transform="translate(207.27 98.231)" fill="#f50057" opacity="0.1"/><rect width="13.986" height="13.986" transform="translate(207.27 127.222)" fill="#f50057" opacity="0.1"/><rect width="13.986" height="13.986" transform="translate(207.27 156.215)" fill="#f50057" opacity="0.1"/><rect width="13.986" height="13.986" transform="translate(207.27 185.209)" fill="#f50057" opacity="0.1"/><rect width="13.986" height="13.986" transform="translate(207.27 214.199)" fill="#f50057" opacity="0.1"/><path d="M712.826,805v11.045q-7.018-.467-13.986-1.492V805Z" transform="translate(-491.57 -561.814)" fill="#f50057" opacity="0.1"/><rect width="48.956" height="6.335" transform="translate(115.371 175.071)" fill="#f50057" opacity="0.1"/><rect width="48.956" height="6.335" transform="translate(115.371 194.312)" fill="#f50057" opacity="0.1"/><path d="M476.441,714.21v6.332H440.263q-2.076-1.586-4.1-3.241l-.555-.454c-1.061-.875-2.112-1.769-3.179-2.637Z" transform="translate(-312.114 -500.657)" fill="#f50057" opacity="0.1"/><path d="M533.334,773.15v6.335h-3.819q-6.443-2.9-12.625-6.335Z" transform="translate(-369.007 -540.359)" fill="#f50057" opacity="0.1"/><rect width="9.103" height="9.103" transform="translate(244.616 136.103)" fill="#f50057" opacity="0.1"/><rect width="9.103" height="9.103" transform="translate(47.474 93.678)" fill="#f50057" opacity="0.1"/><rect width="9.103" height="9.103" transform="translate(47.474 114.828)" fill="#f50057" opacity="0.1"/><rect width="9.103" height="9.103" transform="translate(47.474 135.976)" fill="#f50057" opacity="0.1"/><rect width="9.103" height="9.103" transform="translate(47.474 157.126)" fill="#f50057" opacity="0.1"/><rect width="9.103" height="9.103" transform="translate(47.474 178.276)" fill="#f50057" opacity="0.1"/><rect width="9.103" height="9.103" transform="translate(47.474 199.423)" fill="#f50057" opacity="0.1"/><rect width="9.103" height="9.103" transform="translate(279.374 136.103)" fill="#f50057" opacity="0.1"/><rect width="9.103" height="9.103" transform="translate(244.616 158.559)" fill="#f50057" opacity="0.1"/><rect width="9.103" height="9.103" transform="translate(279.374 158.559)" fill="#f50057" opacity="0.1"/><rect width="9.103" height="9.103" transform="translate(244.616 181.018)" fill="#f50057" opacity="0.1"/><rect width="9.103" height="9.103" transform="translate(279.374 181.018)" fill="#f50057" opacity="0.1"/><rect width="9.103" height="9.103" transform="translate(244.616 203.477)" fill="#f50057" opacity="0.1"/><rect width="9.103" height="9.103" transform="translate(279.374 203.477)" fill="#f50057" opacity="0.1"/><rect width="9.103" height="9.103" transform="translate(244.616 225.933)" fill="#f50057" opacity="0.1"/><rect width="9.103" height="9.103" transform="translate(279.374 225.933)" fill="#f50057" opacity="0.1"/><path d="M749.43,766.882V761.01h9.1v5.036Z" transform="translate(-504.814 -512.621)" fill="#f50057" opacity="0.1"/><path d="M69.93,424.68V429.9h34.816V424.68Zm3.1,4.9H70.475v-4.57h2.556Zm3.1,0H73.576v-4.57h2.556Zm3.1,0H76.677v-4.57h2.556Zm3.1,0H79.777v-4.57h2.556Zm3.1,0H82.878v-4.57h2.556Zm3.1,0H85.979v-4.57h2.556Zm3.1,0H89.08v-4.57h2.556Zm3.1,0H92.18v-4.57h2.556Zm3.1,0H95.281v-4.57h2.556Zm3.1,0H98.382v-4.57h2.556Zm3.264,0h-2.719v-4.57H104.2Z" transform="translate(-67.932 -305.628)" fill="#f50057" opacity="0.1"/><path d="M69.93,471.14v5.206h34.816V471.14Zm3.1,4.88H70.475v-4.553h2.556Zm3.1,0H73.576v-4.553h2.556Zm3.1,0H76.677v-4.553h2.556Zm3.1,0H79.777v-4.553h2.556Zm3.1,0H82.878v-4.553h2.556Zm3.1,0H85.979v-4.553h2.556Zm3.1,0H89.08v-4.553h2.556Zm3.1,0H92.18v-4.553h2.556Zm3.1,0H95.281v-4.553h2.556Zm3.1,0H98.382v-4.553h2.556Zm3.264,0h-2.719v-4.553H104.2Z" transform="translate(-67.932 -336.924)" fill="#f50057" opacity="0.1"/><path d="M69.93,517.59V522.8h34.816V517.59Zm3.1,4.88H70.475v-4.553h2.556Zm3.1,0H73.576v-4.553h2.556Zm3.1,0H76.677v-4.553h2.556Zm3.1,0H79.777v-4.553h2.556Zm3.1,0H82.878v-4.553h2.556Zm3.1,0H85.979v-4.553h2.556Zm3.1,0H89.08v-4.553h2.556Zm3.1,0H92.18v-4.553h2.556Zm3.1,0H95.281v-4.553h2.556Zm3.1,0H98.382v-4.553h2.556Zm3.264,0h-2.719v-4.553H104.2Z" transform="translate(-67.932 -368.213)" fill="#f50057" opacity="0.1"/><path d="M69.93,564v5.222h34.816V564Zm3.1,4.9H70.475v-4.57h2.556Zm3.1,0H73.576v-4.57h2.556Zm3.1,0H76.677v-4.57h2.556Zm3.1,0H79.777v-4.57h2.556Zm3.1,0H82.878v-4.57h2.556Zm3.1,0H85.979v-4.57h2.556Zm3.1,0H89.08v-4.57h2.556Zm3.1,0H92.18v-4.57h2.556Zm3.1,0H95.281v-4.57h2.556Zm3.1,0H98.382v-4.57h2.556Zm3.264,0h-2.719v-4.57H104.2Z" transform="translate(-67.932 -399.475)" fill="#f50057" opacity="0.1"/><path d="M70.34,610.49c.124.49.264.979.411,1.462v-1.136h2.556v4.57H71.943c.039.108.082.219.127.326h32.966V610.49Zm6.068,4.9H73.852v-4.57h2.556Zm3.1,0H76.953v-4.57h2.556Zm3.1,0H80.053v-4.57h2.556Zm3.1,0H83.154v-4.57H85.71Zm3.1,0H86.255v-4.57h2.556Zm3.1,0H89.356v-4.57h2.556Zm3.1,0H92.456v-4.57h2.556Zm3.1,0H95.557v-4.57h2.556Zm3.1,0H98.658v-4.57h2.556Zm3.264,0h-2.719v-4.57h2.719Z" transform="translate(-68.208 -430.791)" fill="#f50057" opacity="0.1"/><path d="M92.51,656.94c.078.108.157.219.238.326h1.694v2.19c.18.219.362.434.545.653v-2.84h2.556v4.57H96.508c.1.108.2.219.31.326h23.138v-5.222Zm8.134,4.9H98.088v-4.57h2.556Zm3.1,0h-2.556v-4.57h2.556Zm3.1,0H104.29v-4.57h2.556Zm3.1,0H107.39v-4.57h2.556Zm3.1,0h-2.556v-4.57h2.556Zm3.1,0h-2.556v-4.57h2.556Zm3.264,0h-2.719v-4.57h2.719Z" transform="translate(-83.142 -462.08)" fill="#f50057" opacity="0.1"/><path d="M144.87,703.39c.294.166.591.326.891.486v-.16h2.556v1.443l.545.248v-1.691h2.556v2.771l.545.209v-2.98h2.719v3.917l.545.17V703.39Z" transform="translate(-118.412 -493.369)" fill="#f50057" opacity="0.1"/><path d="M459.486,286.149s-7.781-.47-6.854,4.981a1.332,1.332,0,0,0,.692,1.4s0-.4.8-.268a3.638,3.638,0,0,0,.845.039A1.759,1.759,0,0,0,456,291.88h0s2.187-.9,3.039-4.478c0,0,.627-.78.6-.979l-1.306.561a2.349,2.349,0,0,1,.1,1.733s-.042-1.7-.3-1.658c-.049,0-.682.326-.682.326a3.874,3.874,0,0,1,.189,2.849s.222-2.03-.428-2.729l-.947.545a4.069,4.069,0,0,1,.29,3.094s.16-2.131-.483-2.96l-.839.653a3.966,3.966,0,0,1,.326,2.833s-.069-2.484-.512-2.673a5.033,5.033,0,0,0-.845.914s.581,1.217.222,1.86c0,0-.222-1.652-.4-1.661a5.5,5.5,0,0,0-.8,1.847,3.975,3.975,0,0,1,.627-1.958,2.193,2.193,0,0,0-1.116.578s.114-.774,1.306-.842a5.1,5.1,0,0,1,.767-.881,4.809,4.809,0,0,0-1.893.219,2.126,2.126,0,0,1,2.109-.4l.826-.676a6.8,6.8,0,0,0-2.206.023,2.656,2.656,0,0,1,2.428-.176l.9-.539a8.219,8.219,0,0,0-2.109-.183,3.234,3.234,0,0,1,2.373.039l.653-.29s-.979-.189-1.25-.219-.3-.108-.3-.108a3.355,3.355,0,0,1,1.818.2A8.214,8.214,0,0,0,459.486,286.149Z" transform="translate(-325.671 -212.306)" fill="#f50057" opacity="0.1"/><path d="M409.88,367.305s-2.66,7.324,2.83,7.993a1.328,1.328,0,0,0,1.537-.264s-.382-.127-.029-.842a3.72,3.72,0,0,0,.281-.8,1.766,1.766,0,0,0-.117-1.113h0s-.245-2.353-3.43-4.184c0,0-.568-.826-.767-.858l.163,1.42a2.353,2.353,0,0,1,1.691.4s-1.632-.441-1.674-.186c0,.049.121.747.121.747a3.864,3.864,0,0,1,2.784.627s-1.887-.79-2.738-.362l.255,1.038a4.089,4.089,0,0,1,3.049.6s-2-.754-2.977-.375l.388.979a4.049,4.049,0,0,1,2.81.486s-2.4-.653-2.706-.268a5.137,5.137,0,0,0,.633,1.067s1.335-.209,1.847.326c0,0-1.648-.258-1.707-.088a5.627,5.627,0,0,0,1.544,1.306,4,4,0,0,1-1.694-1.159,2.193,2.193,0,0,0,.238,1.237s-.712-.326-.441-1.485a5,5,0,0,1-.627-.979,4.734,4.734,0,0,0-.326,1.877,2.128,2.128,0,0,1,.215-2.135l-.411-.979a6.606,6.606,0,0,0-.607,2.125,2.691,2.691,0,0,1,.522-2.383l-.258-1.015a8.139,8.139,0,0,0-.774,1.958,3.225,3.225,0,0,1,.708-2.265l-.095-.7s-.457.875-.565,1.139-.189.255-.189.255a3.355,3.355,0,0,1,.708-1.687A8.242,8.242,0,0,0,409.88,367.305Z" transform="translate(-296.491 -266.936)" fill="#f50057" opacity="0.1"/><path d="M567.913,348.379s-2.657,7.337,2.83,7.99a1.332,1.332,0,0,0,1.541-.268s-.385-.127-.029-.839a3.493,3.493,0,0,0,.277-.8,1.766,1.766,0,0,0-.114-1.113h0s-.245-2.353-3.43-4.184c0,0-.571-.823-.77-.855l.166,1.417a2.362,2.362,0,0,1,1.691.4s-1.632-.441-1.678-.189c0,.052.121.747.121.747a3.892,3.892,0,0,1,2.787.627s-1.887-.787-2.742-.362l.258,1.041a4.072,4.072,0,0,1,3.049.6s-2-.757-2.98-.379l.388.979a4.049,4.049,0,0,1,2.81.486s-2.4-.653-2.706-.264a5.037,5.037,0,0,0,.653,1.067s1.332-.212,1.847.326c0,0-1.648-.258-1.707-.085a5.652,5.652,0,0,0,1.541,1.306,3.959,3.959,0,0,1-1.691-1.159,2.21,2.21,0,0,0,.235,1.237s-.708-.326-.437-1.482a5.257,5.257,0,0,1-.63-.979,4.812,4.812,0,0,0-.326,1.877,2.126,2.126,0,0,1,.215-2.135l-.411-.979a6.607,6.607,0,0,0-.607,2.122,2.684,2.684,0,0,1,.522-2.379l-.261-1.018a8.135,8.135,0,0,0-.774,1.958,3.24,3.24,0,0,1,.712-2.265l-.095-.7s-.457.875-.568,1.139-.189.255-.189.255a3.378,3.378,0,0,1,.712-1.687A8.028,8.028,0,0,0,567.913,348.379Z" transform="translate(-402.943 -254.185)" fill="#f50057" opacity="0.1"/><path d="M342.01,531.872s-2.66,7.328,2.83,8a1.325,1.325,0,0,0,1.537-.268s-.382-.127-.029-.839a3.516,3.516,0,0,0,.281-.8,1.743,1.743,0,0,0-.117-1.113h0s-.245-2.353-3.43-4.181c0,0-.568-.826-.767-.858l.163,1.417a2.36,2.36,0,0,1,1.691.4s-1.632-.441-1.674-.189c0,.052.121.747.121.747a3.882,3.882,0,0,1,2.784.627s-1.887-.787-2.738-.362l.255,1.041a4.072,4.072,0,0,1,3.049.6s-2-.757-2.977-.379l.388.979a4.049,4.049,0,0,1,2.81.486s-2.4-.653-2.706-.264a5.137,5.137,0,0,0,.633,1.067s1.335-.212,1.851.326c0,0-1.652-.258-1.71-.085a5.685,5.685,0,0,0,1.544,1.306,3.973,3.973,0,0,1-1.694-1.155,2.184,2.184,0,0,0,.238,1.234s-.712-.326-.441-1.482a5.259,5.259,0,0,1-.627-.979,4.748,4.748,0,0,0-.326,1.877,2.126,2.126,0,0,1,.215-2.135l-.411-.979a6.542,6.542,0,0,0-.6,2.122,2.684,2.684,0,0,1,.522-2.379l-.261-1.015a8.075,8.075,0,0,0-.774,1.958,3.222,3.222,0,0,1,.708-2.265l-.095-.7s-.457.875-.565,1.139-.189.255-.189.255a3.342,3.342,0,0,1,.712-1.687A8.325,8.325,0,0,0,342.01,531.872Z" transform="translate(-250.773 -377.791)" fill="#f50057" opacity="0.1"/><path d="M309.673,320.275s-2.657,7.324,2.83,7.993a1.335,1.335,0,0,0,1.541-.264s-.385-.127-.029-.842a3.659,3.659,0,0,0,.277-.8,1.756,1.756,0,0,0-.114-1.11h0s-.245-2.353-3.434-4.184c0,0-.568-.826-.767-.858l.166,1.42a2.343,2.343,0,0,1,1.687.4s-1.632-.441-1.674-.186c0,.049.121.747.121.747a3.874,3.874,0,0,1,2.787.627s-1.887-.79-2.742-.362l.255,1.038a4.081,4.081,0,0,1,3.052.6s-2-.757-2.98-.375l.388.979a4.038,4.038,0,0,1,2.81.49s-2.4-.653-2.706-.268a5.137,5.137,0,0,0,.633,1.067s1.335-.209,1.851.326c0,0-1.648-.258-1.707-.088a5.594,5.594,0,0,0,1.541,1.306,4.014,4.014,0,0,1-1.694-1.159,2.193,2.193,0,0,0,.238,1.237s-.712-.326-.437-1.485a5.148,5.148,0,0,1-.63-.979,4.8,4.8,0,0,0-.326,1.877,2.118,2.118,0,0,1,.215-2.135l-.415-.979a6.541,6.541,0,0,0-.6,2.125,2.691,2.691,0,0,1,.522-2.383l-.261-1.015a8.136,8.136,0,0,0-.774,1.958,3.246,3.246,0,0,1,.708-2.265l-.091-.7s-.46.875-.568,1.136-.189.258-.189.258a3.342,3.342,0,0,1,.712-1.687A7.984,7.984,0,0,0,309.673,320.275Z" transform="translate(-228.991 -235.256)" fill="#f50057" opacity="0.1"/><path d="M371.44,442.109s2.053,7.507,6.923,4.9a1.328,1.328,0,0,0,1.1-1.1s-.385.118-.506-.669a3.591,3.591,0,0,0-.235-.813,1.727,1.727,0,0,0-.734-.842h0s-1.557-1.782-5.222-1.443c0,0-.94-.343-1.123-.255l.953,1.061a2.384,2.384,0,0,1,1.612-.653s-1.6.588-1.479.813c.026.046.529.542.529.542a3.855,3.855,0,0,1,2.637-1.1s-1.994.444-2.445,1.286l.806.7a4.093,4.093,0,0,1,2.84-1.27s-2.073.535-2.654,1.41l.888.584a3.947,3.947,0,0,1,2.579-1.221s-2.33.858-2.366,1.341a5.089,5.089,0,0,0,1.136.506s.979-.94,1.694-.806c0,0-1.5.741-1.446.914a5.809,5.809,0,0,0,2.007.17,3.982,3.982,0,0,1-2.05.033,2.174,2.174,0,0,0,.907.871s-.77.14-1.214-.96a5.174,5.174,0,0,1-1.084-.441,4.824,4.824,0,0,0,.816,1.723,2.129,2.129,0,0,1-1.054-1.87l-.9-.565a6.84,6.84,0,0,0,.728,2.082,2.686,2.686,0,0,1-.947-2.246l-.8-.679a8.159,8.159,0,0,0,.5,2.056,3.272,3.272,0,0,1-.725-2.259l-.48-.519s.131.979.193,1.257,0,.326,0,.326a3.352,3.352,0,0,1-.392-1.789A8.158,8.158,0,0,0,371.44,442.109Z" transform="translate(-271.031 -317.204)" fill="#f50057" opacity="0.1"/><path d="M542.08,462.682s2.053,7.507,6.92,4.9a1.325,1.325,0,0,0,1.106-1.1s-.388.117-.509-.653a3.426,3.426,0,0,0-.232-.813,1.749,1.749,0,0,0-.738-.842h0s-1.557-1.782-5.222-1.439c0,0-.94-.346-1.12-.258l.95,1.061a2.384,2.384,0,0,1,1.612-.653s-1.6.587-1.475.813c.023.046.529.542.529.542a3.856,3.856,0,0,1,2.637-1.1s-2,.444-2.448,1.286l.809.7a4.04,4.04,0,0,1,2.836-1.27s-2.069.535-2.65,1.41l.888.584a3.945,3.945,0,0,1,2.575-1.221s-2.33.858-2.363,1.341a5.048,5.048,0,0,0,1.133.506s.979-.94,1.694-.806c0,0-1.495.741-1.446.914a5.82,5.82,0,0,0,2.011.17,4,4,0,0,1-2.053.033,2.2,2.2,0,0,0,.907.871s-.77.14-1.214-.96a5.087,5.087,0,0,1-1.08-.441,4.794,4.794,0,0,0,.813,1.723,2.129,2.129,0,0,1-1.054-1.87l-.9-.571a6.783,6.783,0,0,0,.731,2.082,2.686,2.686,0,0,1-.947-2.246l-.8-.679a8.06,8.06,0,0,0,.506,2.056,3.263,3.263,0,0,1-.728-2.259l-.48-.519s.131.979.193,1.257,0,.326,0,.326a3.352,3.352,0,0,1-.392-1.789A8.205,8.205,0,0,0,542.08,462.682Z" transform="translate(-385.975 -331.074)" fill="#f50057" opacity="0.1"/><path d="M451.075,629.141s16.933-5.7,13.428-25.906l-21.509-5.585L438,614.228Z" transform="translate(-315.866 -422.142)" fill="#ced7e7"/><path d="M438,625.753l13.072,14.913s16.933-5.7,13.428-25.906Z" transform="translate(-315.866 -433.667)" opacity="0.1"/><path d="M219.951,180.479s2.285,3.718,5.408,1.86.127-6.988.127-6.988S219.5,174.532,219.951,180.479Z" transform="translate(-168.971 -137.653)" fill="#fed253"/><path d="M225.359,182.343a3.222,3.222,0,0,1-2.516.424,5.073,5.073,0,0,1-2.5-1.749,5.455,5.455,0,0,1-.392-.532,4.513,4.513,0,0,1,1.413-4.129h0a5.754,5.754,0,0,1,3.747-1.031,1.7,1.7,0,0,1,.366.033l.062.1c.088.166.281.535.486,1.028C226.723,178.107,227.556,181.034,225.359,182.343Z" transform="translate(-168.971 -137.657)" opacity="0.1"/><path d="M463.154,611.85l11.75.95,21.868.179-17.23,21.216s-5.467.3-6.593,1.067-16.937.359-16.937.359l-2.552-10.875Z" transform="translate(-326.28 -431.707)" fill="#ffa2a2"/><path d="M463.154,611.85l11.75.95,21.868.179-17.23,21.216s-5.467.3-6.593,1.067-16.937.359-16.937.359l-2.552-10.875Z" transform="translate(-326.28 -431.707)" opacity="0.05"/><path d="M422.224,436.14l2.732,4.635.594,8.082s1.9,6.89,3.329,8.911,2.02,7.37,2.02,7.37.594,4.991,1.306,6.058,1.665,8.813,1.665,8.813,6.3,12.6,12,14.139c0,0-28.282,9.27-13.428,25.906,0,0-10.575,2.611-13.072-.356s-9.031-46.939-9.031-46.939l2.02-37.078Z" transform="translate(-297.235 -313.038)" fill="#ced7e7"/><path d="M422.224,436.14l2.732,4.635.594,8.082s1.9,6.89,3.329,8.911,2.02,7.37,2.02,7.37.594,4.991,1.306,6.058,1.665,8.813,1.665,8.813,6.3,12.6,12,14.139c0,0-28.282,9.27-13.428,25.906,0,0-10.575,2.611-13.072-.356s-9.031-46.939-9.031-46.939l2.02-37.078Z" transform="translate(-297.235 -313.038)" opacity="0.05"/><path d="M270.327,256.781a25.459,25.459,0,0,0,.685,12.37l-4.4,12.6s-33.511-18.657-30.658-23.174c1.616-2.562,1.821-9.341,1.691-14.727-.095-4.093-.385-7.376-.385-7.376s41.126,4.044,35.652,13.431A22.159,22.159,0,0,0,270.327,256.781Z" transform="translate(-179.651 -178.849)" fill="#ffa2a2"/><path d="M275.962,249.9a22.159,22.159,0,0,0-2.585,6.88A27.727,27.727,0,0,1,240.7,243.846c-.095-4.093-.385-7.376-.385-7.376S281.426,240.514,275.962,249.9Z" transform="translate(-182.701 -178.849)" opacity="0.1"/><path d="M286.213,158.592A27.691,27.691,0,1,1,235.928,142.6q.587-.826,1.237-1.612a27.7,27.7,0,0,1,9.012-7.181h0a27.2,27.2,0,0,1,5.924-2.148,27.6,27.6,0,0,1,34.111,26.934Z" transform="translate(-176.316 -107.743)" fill="#ffa2a2"/><path d="M189.932,371.971c-.415,2.213.1,6.257.891,10.373.033.18.069.359.1.539s.088.457.134.682c.362,1.769.757,3.522,1.142,5.115s.731,2.957,1.025,4.08c.444,1.681.747,2.738.747,2.738s.039,1.038.091,2.69c.029.953.062,2.115.095,3.4,0,.372.023.751.033,1.142.016.682.033,1.39.049,2.115,0,.235,0,.47.016.708,0,.78.029,1.576.042,2.37.016,1.09.029,2.18.036,3.238v4.067a24.01,24.01,0,0,1-.352,4.991c-.075.189-.144.395-.209.61a20.641,20.641,0,0,0-.614,3.091l-.555-.454c-1.061-.875-2.112-1.769-3.179-2.637a46.215,46.215,0,0,0-5.634-4.041c-.134-.078-.268-.157-.4-.232-.366-.212-.738-.411-1.116-.6a25.565,25.565,0,0,0-2.4-1.057,31.379,31.379,0,0,0-11.9-1.87c-1.632.623-2.693,1.071-2.693,1.071l-2.076.627-.346.1c-2.249.685-5.412,1.658-6.551,2.063-1.841.653-17.824,3.979-17.824,3.979a26.553,26.553,0,0,1-4.459.816,62.948,62.948,0,0,1-8.359,1.749,46.575,46.575,0,0,1-19.13-1.541,3.127,3.127,0,0,1-.555-.016,1.71,1.71,0,0,0,.326-.046l-.4-.117-.545-.17q-1.371-.431-2.719-.943l-.545-.209q-1.306-.5-2.556-1.08l-.545-.248q-1.306-.607-2.556-1.283c-.3-.157-.6-.326-.891-.486q-1.332-.744-2.611-1.56c-.144-1.23-.219-2.053-.219-2.053l-1.273-6.339-.065-.326-.914-4.57-.065-.326-1.988-9.942-.065-.326-.914-4.57-.065-.326-2.014-9.935-.065-.326-.914-4.57-.065-.326-2-9.955-.065-.326-.914-4.553-.065-.326-.362-1.8-.545-2.719s-1.74-2.487-3.7-5.428l-.219-.326c-.558-.826-1.133-1.684-1.691-2.526-.186-.277-.366-.552-.545-.823q-.408-.617-.79-1.2l-.176-.271-.036-.055c-2.814-4.354-.93-6.247-.93-6.247s1.182-1.6,2.706-3.714c.075-.108.153-.215.235-.326.653-.914,1.371-1.913,2.076-2.911l.545-.777c.206-.29.408-.581.6-.868.078-.108.153-.219.225-.326a38.617,38.617,0,0,0,3-4.743c.4-1.061,2.938-4.2,5.467-6.949a28.811,28.811,0,0,1,4.87-4.569c2.02-1.067,2.853-4.517,2.853-4.517s4.4-1.541,4.991-2.729,8.914-6.528,8.914-6.528a43.969,43.969,0,0,0,4.726-3.473,2.785,2.785,0,0,0,.5-.584c.473-.849,3.564-1.547,4.821-1.8.326-.065.529-.1.529-.1a10.637,10.637,0,0,1,1.9-2.5,11.444,11.444,0,0,0,1.691-3.532c.584-1.652,1.038-3.241,1.038-3.241.953-3.208,2.853-2.259,2.853-2.259a6.527,6.527,0,0,0,.124,1.306h0c.793,3.917,5.1,5.549,7.363,7.38,2.5,2.017,6.417,7.249,9.508,8.317,2.559.885,5.526,4.22,6.466,5.333l.072.085c.157.183.235.287.235.287s1.753-.091,2.82-.111h.388a1.136,1.136,0,0,0,.594-.242c1.061-.721,2.641-2.836,3.329-3.323.829-.6,1.665-10.223,1.665-10.223l.042-.02c2.96-1.387,6.136,12.5,6.136,12.5s5.585,1.665,6.061,2.853a4.269,4.269,0,0,0,1.146,1.159,62.8,62.8,0,0,0,9.172,5.826c.072.036.14.072.212.1a2.189,2.189,0,0,0,.2.095c.121.059.238.111.349.16q.264.118.49.2l.2.069a4.72,4.72,0,0,1,1.306.676c.117.085.235.173.349.268a9.223,9.223,0,0,1,1.221,1.227c.055.065.108.134.16.2h0a10.982,10.982,0,0,1,.653.9,13.349,13.349,0,0,1,.819,1.364s4.87,8.32,6.417,9.266,2.5,10.578,2.5,10.578h0L191.6,354.382s-.245,4.9-.7,9.89C190.64,367.072,190.317,369.922,189.932,371.971Z" transform="translate(-69.104 -207.273)" fill="#ced7e7"/><path d="M283.818,337.682a19,19,0,0,1-6.237,2.079,5.141,5.141,0,0,1-1.071-.062c-2.866-.434-7.07-2.791-7.07-2.791l4.932-5.408,6,2.973,2.206,2.053Z" transform="translate(-202.323 -242.861)" fill="#63667e"/><path d="M285.867,154.169a3.286,3.286,0,0,1-.421.486c-1.717,1.632-4.765.956-7.106.578a25.876,25.876,0,0,1-5.918-1.71c-1.652-.705-3.633-1.567-5.118-.555-.571.385-.963,1-1.557,1.341a4.287,4.287,0,0,1-2.053.372,29.975,29.975,0,0,1-6.8-.49c-3.326-.777-6.766-2.732-9.929-1.443-2.474,1.005-3.816,3.7-4.485,6.286a11.374,11.374,0,0,1-1.306,3.688,2.977,2.977,0,0,1-3.378,1.335c-1.792-.747-2.056-3.789-4.217-3.943-2.373-.166-2.344,2.285-1.652,4.057,1.025,2.611,2.366,5.222,2.425,7.944a27.708,27.708,0,0,1,1.58-29.519,2.983,2.983,0,0,0,1.178-1.377,2.061,2.061,0,0,0,.059-.235c.18-.911-.326-1.867-.356-2.82-.114-2.327,2.406-3.949,4.716-4.243,1.537-.2,3.111-.046,4.651-.095h0a10.523,10.523,0,0,0,2.3-.307,11.068,11.068,0,0,0,3.59-1.844,27.743,27.743,0,0,1,33.772,22.5Z" transform="translate(-176.322 -107.756)" opacity="0.1"/><path d="M281.177,142.435a3.59,3.59,0,0,1-.979,1.7c-1.717,1.632-4.765.953-7.106.574a25.553,25.553,0,0,1-5.918-1.7c-1.652-.7-3.633-1.563-5.118-.552-.571.385-.963,1-1.557,1.341a4.247,4.247,0,0,1-2.053.369,29.066,29.066,0,0,1-6.8-.486c-3.326-.78-6.766-2.732-9.929-1.446-2.474,1.005-3.816,3.7-4.485,6.29a11.329,11.329,0,0,1-1.306,3.685,2.983,2.983,0,0,1-3.378,1.338c-1.792-.747-2.056-3.789-4.217-3.943-2.373-.166-2.344,2.285-1.652,4.057,1.214,3.091,2.866,6.166,2.324,9.443-.539,0-1.43-.02-1.958-.033.411-.7-.372-1.537-1.152-1.776s-1.691-.235-2.285-.8a2.678,2.678,0,0,1-.535-2.233,15.364,15.364,0,0,1,1.217-4.876c.428-.979.979-2.04.653-3.065a8.706,8.706,0,0,0-.705-1.335,5.1,5.1,0,0,1,.062-4.286c.248-.574.428-1.116.633-1.632a7.259,7.259,0,0,1,1.113-2.033c.747-.93,1.479-2.33.653-3.2-.209-.219.209-.369.075-.653a.558.558,0,0,1-.049-.153,1.482,1.482,0,0,1,.235-.979,2.388,2.388,0,0,1,.127-.219,1.859,1.859,0,0,1,.127-.215,10.376,10.376,0,0,1,2.823-3.078c.708-.512,1.537-1.005,1.818-1.834.326-.979-.248-2.02-.3-3.055-.114-2.327,2.406-3.949,4.716-4.243s4.707.193,6.959-.4c3.2-.842,5.441-3.662,8.343-5.245a11.812,11.812,0,0,1,10.379-.372c3.388,1.547,5.944,4.674,9.482,5.849a17.438,17.438,0,0,1,3.74,1.276,8.228,8.228,0,0,1,2.778,3.59c1.035,2.1,1.244,4.207,1.958,6.43a23.836,23.836,0,0,1,1.42,6.1,6.111,6.111,0,0,1-.16,1.8Z" transform="translate(-171.075 -97.945)" fill="#896363"/><g transform="translate(52.072 29.117)" opacity="0.1"><path d="M234.739,181.191a1.453,1.453,0,0,0-.245-1.221c.085.255-.284.4-.082.614A1.305,1.305,0,0,1,234.739,181.191Z" transform="translate(-230.759 -169.907)"/><path d="M234.619,177.68h0a1.348,1.348,0,0,0-.069.353C234.612,177.928,234.7,177.82,234.619,177.68Z" transform="translate(-230.893 -168.365)"/><path d="M287.127,193.059c-1.72,1.632-4.765.956-7.112.574a25.38,25.38,0,0,1-5.911-1.707c-1.655-.705-3.633-1.567-5.121-.555-.568.385-.96,1-1.557,1.341a4.254,4.254,0,0,1-2.053.369,29.832,29.832,0,0,1-6.8-.49c-3.323-.777-6.763-2.725-9.926-1.443-2.474,1.009-3.816,3.7-4.485,6.29a11.3,11.3,0,0,1-1.306,3.688,2.987,2.987,0,0,1-3.378,1.338c-1.792-.751-2.056-3.789-4.217-3.943-1.687-.121-2.157,1.087-2.043,2.428a1.716,1.716,0,0,1,2.043-1.717c2.161.153,2.425,3.2,4.217,3.943a2.972,2.972,0,0,0,3.378-1.338,11.438,11.438,0,0,0,1.306-3.685c.669-2.588,2.011-5.284,4.485-6.29,3.163-1.286,6.6.653,9.926,1.443a28.907,28.907,0,0,0,6.8.486,4.131,4.131,0,0,0,2.053-.366c.61-.346.979-.956,1.557-1.345,1.488-1.009,3.466-.147,5.121.555a25.547,25.547,0,0,0,5.911,1.71c2.347.379,5.392,1.061,7.112-.578a4.485,4.485,0,0,0,1.152-3.59A4.111,4.111,0,0,1,287.127,193.059Z" transform="translate(-229.984 -176.785)"/><path d="M249.436,149.14a3.47,3.47,0,0,0-.02.49c.033.679.29,1.358.372,2.02A10.157,10.157,0,0,0,249.436,149.14Z" transform="translate(-240.906 -149.14)"/><path d="M226.791,212.66a2.4,2.4,0,0,1,.062.3,2.343,2.343,0,0,0-.062-1.009,8.461,8.461,0,0,0-.705-1.338,4.031,4.031,0,0,1-.428-1.55,4.3,4.3,0,0,0,.428,2.265A8.292,8.292,0,0,1,226.791,212.66Z" transform="translate(-224.893 -189.502)"/><path d="M237.508,255.056l-1.909-.029a.819.819,0,0,1-.059.712c.539,0,1.433.02,1.958.033a8,8,0,0,0,.095-1.691A7.655,7.655,0,0,1,237.508,255.056Z" transform="translate(-231.56 -219.828)"/><path d="M226.17,247.047c-.78-.235-1.687-.238-2.268-.809a2.069,2.069,0,0,1-.542-1.368,2.569,2.569,0,0,0,.542,2.082c.581.571,1.488.574,2.268.809a1.939,1.939,0,0,1,1.185.979C227.685,248.065,226.927,247.272,226.17,247.047Z" transform="translate(-223.345 -213.624)"/></g><path d="M347.116,480.285c-.366-.212-.738-.411-1.116-.6a25.555,25.555,0,0,0-2.4-1.058,31.38,31.38,0,0,0-11.9-1.87c-1.632.623-2.693,1.071-2.693,1.071l-2.076.627-.346.1c-.023-.228-.049-.457-.072-.689s-.049-.454-.075-.682c-.731-6.923-1.306-14.035-1.306-14.035V456.3l-.039-18.1-.326-5.966-.153-2.641-.029-.5-.059-1.031-.033-.614a5.523,5.523,0,0,1-.183-.594h0c-.023-.082-.046-.173-.065-.268-.082-.326-.17-.747-.261-1.2-.6-3-1.345-8.065-1.39-9.093-.059-1.371-1.247-9.57-1.247-9.57-.121-4.514-3.917-13.013-4.873-14.616s-2.024-11.231-1.665-11.75a15.033,15.033,0,0,0,.382-3.434c0-.173.016-.343.023-.509.049-1.185.072-2.174.072-2.174l3.734-.738,1-.2.078-.016.033.065c.108.2.444.836.839,1.671.046.088.088.183.134.277.02.046.042.091.065.137a14.372,14.372,0,0,1,1.541,4.915c-.059,2.141,2.379,7.311,2.379,7.311.235,1.188,5.405,13.01,5.405,13.01s4.22,11.587,3.982,13.49,2.02,14.5,2.02,14.5l2.317,12.955a76.577,76.577,0,0,1,2.611,8.434L342,453.38l.108.636,1.5,8.9.738,4.361s.31,2.317.78,4.9c.039.232.085.467.131.7a35.928,35.928,0,0,0,1.23,5.01,18.754,18.754,0,0,1,.63,2.4Z" transform="translate(-232.839 -271.005)" opacity="0.1"/><path d="M348.264,480.5c-.134-.078-.268-.157-.4-.232-.366-.212-.738-.411-1.116-.6a25.555,25.555,0,0,0-2.4-1.058,31.379,31.379,0,0,0-11.9-1.87c-1.632.623-2.693,1.071-2.693,1.071l-2.076.627c-.026-.228-.049-.457-.075-.689s-.046-.418-.065-.627c-.731-6.906-1.306-13.986-1.306-13.986v-6.916l-.039-18.053-.326-5.7-.065-1.182-.046-.8-.059-1.058-.059-1.074-.042-.774v-.17a.063.063,0,0,0-.023-.055c-.062-.176-.137-.444-.219-.783l-.039-.163c-.016-.075-.036-.157-.052-.238-.614-2.784-1.514-8.786-1.563-9.913-.059-1.371-1.247-9.57-1.247-9.57-.121-4.514-3.917-13.013-4.873-14.616s-2.02-11.231-1.665-11.75a18.978,18.978,0,0,0,.4-3.943v-.379c.042-1.009.059-1.8.059-1.8l3.473-.685.881-.173.137-.026.326-.065s.428.79.94,1.877l.065.137a14.972,14.972,0,0,1,1.606,5.053c-.059,2.141,2.379,7.311,2.379,7.311.235,1.188,5.405,13.01,5.405,13.01s4.22,11.587,3.982,13.49,2.02,14.5,2.02,14.5l2.317,12.955a76.57,76.57,0,0,1,2.611,8.434l.526,3.107.108.63,1.185,7.024,1.093,6.472s.326,2.308.777,4.9c.042.235.085.47.131.708a36.1,36.1,0,0,0,1.23,5.033A19.917,19.917,0,0,1,348.264,480.5Z" transform="translate(-233.582 -270.991)" fill="#63667e"/><path d="M281.924,111.435s-1.247,1.606-2.373,1.606a35.274,35.274,0,0,1-7.794-.891c-2.285-.712-13.487-1.25-13.487-1.25s-15.863.059-16.4-.477-9.864-3.388-10.813-3.208c-.2.039-.685.124-1.335.232l-.744.121c-1.126.18-2.533.388-3.819.542a11.931,11.931,0,0,1-3.43.118v-1.368a18.579,18.579,0,0,0,1.958-3.443c.117-.767,1.665-11.887,5.705-15.866a15.928,15.928,0,0,1,7.664-7.181c5.467-2.379,10.934-4.4,10.934-4.4l.956-.137,3.084-.457a2.328,2.328,0,0,1,.3-.255c.855-.653,3.447-2.073,6.825.979l.6.953s10.4,2.435,15.207,10.931,5.053,16.816,5.408,20.618c0,0-.238,1.071.238,1.485a6.656,6.656,0,0,1,.493.483c.042.042.085.085.124.131.137.137.264.281.369.4a.153.153,0,0,1,.033.033,1.045,1.045,0,0,0,.082.088Z" transform="translate(-170.186 -69.555)" fill="#fed253"/><path d="M297.982,172.318s-1.247,1.606-2.373,1.606a35.275,35.275,0,0,1-7.794-.891c-2.285-.712-13.487-1.25-13.487-1.25s-15.863.059-16.4-.477-9.864-3.388-10.813-3.208c-.2.039-.685.124-1.335.232l-.17-1.044-.042-.258s18-3.861,30.005-1.838,20.857,4.276,20.857,4.276-.238,1.071.238,1.485a6.656,6.656,0,0,1,.493.483c.042.042.085.085.124.131.137.137.264.281.369.4a.154.154,0,0,1,.033.033,1.078,1.078,0,0,0,.082.088Z" transform="translate(-186.244 -130.438)" opacity="0.05"/><path d="M279.1,181.909a47.012,47.012,0,0,1-8.111-.633c-.509-.075-1.009-.166-1.511-.277-1.922-.418-7.833-1.59-11.424-1.048-4.338.653-16.578-.535-16.578-.535a87.834,87.834,0,0,1-10.578-2.791,10.517,10.517,0,0,0-4.824-.375,13.432,13.432,0,0,0-1.4.251c-2.526.6-4.658,1.958-4.289,4.279a5.451,5.451,0,0,1-.392-.532,4.513,4.513,0,0,1,1.413-4.129h0l.215-.088a26.359,26.359,0,0,1,3.4-.728c.18-.029.366-.055.555-.078,3.248-.437,7.944-.535,11.907,1.459,0,0,3.682,1.727,6.179,1.727s22.815.18,27.57,1.544a20.239,20.239,0,0,0,2.889.61,11.751,11.751,0,0,0,5.157-.486,6.11,6.11,0,0,1-.176,1.831Z" transform="translate(-168.998 -137.418)" opacity="0.1"/><path d="M281.924,177.79s-1.247,1.606-2.373,1.606a35.274,35.274,0,0,1-7.794-.891c-2.285-.712-13.487-1.25-13.487-1.25s-15.863.059-16.4-.477-9.864-3.388-10.813-3.208c-.2.039-.685.124-1.335.232l-.744.121a13.252,13.252,0,0,0-3.819.542,11.932,11.932,0,0,1-3.43.118v-.271a7.835,7.835,0,0,1,1.067-.516,28.867,28.867,0,0,1,6.756-1.051,18.882,18.882,0,0,1,9.11,1.7s3.682,1.727,6.179,1.727,22.815.176,27.57,1.544a20.667,20.667,0,0,0,2.889.607,12.011,12.011,0,0,0,6.3-.9.154.154,0,0,1,.033.033,1.084,1.084,0,0,0,.082.088Z" transform="translate(-170.186 -135.91)" opacity="0.1"/><path d="M218.358,179.98s-3.982-3.032,1.188-5.053c0,0,9.031-2.791,15.866.653,0,0,3.682,1.72,6.179,1.72s22.815.18,27.57,1.547a20.562,20.562,0,0,0,2.889.607,12.3,12.3,0,0,0,7.334-1.394c.326-.18.62-.271.708-.166.3.359.062,2.438-2.552,2.853-2.04.326-6.675-.29-8.623-.574-.506-.075-1.009-.17-1.508-.277-1.922-.418-7.833-1.59-11.44-1.048-4.335.653-16.578-.535-16.578-.535a87.4,87.4,0,0,1-10.575-2.794C225.784,174.268,217.229,175.345,218.358,179.98Z" transform="translate(-166.928 -136.674)" fill="#fed253"/><path d="M311.371,82.828c-.326-.47-4.521-3.829-6.231-5.186l3.084-.457a2.33,2.33,0,0,1,.3-.255A12.758,12.758,0,0,1,311.371,82.828Z" transform="translate(-226.371 -71.381)" opacity="0.1"/><path d="M215.9,89.4l-1.368,2.02,5.229-.176.118-2.259Z" transform="translate(-144.502 -59.944)" opacity="0.1"/><path d="M316.47,97.73l.594,1.841,3.329.535-1.426-2.2Z" transform="translate(-213.169 -65.832)" opacity="0.1"/><path d="M205.18,347c.356.594,12.06,15.993,15.151,15.566S205.18,347,205.18,347Z" transform="translate(-159.037 -253.302)" opacity="0.1"/><path d="M325.33,390.12s2.853,2.735,2.435,3.8S325.33,390.12,325.33,390.12Z" transform="translate(-239.971 -282.348)" opacity="0.1"/><path d="M226.7,447.65s-2.5,11.7-1.188,12.077S226.7,447.65,226.7,447.65Z" transform="translate(-172.481 -321.101)" opacity="0.1"/><path d="M328.24,586.91c.415,1.188,3.861,8.914,4.635,9.328S328.24,586.91,328.24,586.91Z" transform="translate(-241.931 -414.907)" opacity="0.1"/><path d="M445.715,489.7c-.121.415-3.091,2.853-2.438,3.744S445.715,489.7,445.715,489.7Z" transform="translate(-319.358 -349.426)" opacity="0.1"/><path d="M379.87,556.14c-.059.3-.653,6.528.477,7.726S379.87,556.14,379.87,556.14Z" transform="translate(-276.569 -394.18)" opacity="0.1"/><path d="M275.25,616.515c-.862.48-1.753.943-2.66,1.387-.979.477-1.958.93-2.957,1.358-.4.173-.8.343-1.191.506q-.9.372-1.782.715c-1.785.7-3.505,1.306-5.036,1.818-.594.2-1.162.382-1.691.552-2.663.845-4.432,1.306-4.432,1.306a4.8,4.8,0,0,0-1.231-.1h-.352a15.493,15.493,0,0,0-1.648.209,76.064,76.064,0,0,0-11.9,3.682c-1.632.623-2.693,1.071-2.693,1.071l-2.076.627-.346.1c-2.249.685-5.412,1.658-6.551,2.063-1.841.653-17.824,3.979-17.824,3.979a26.553,26.553,0,0,1-4.459.816,81.37,81.37,0,0,1-11.169.255c-3.74.242-9.792-.581-13.314-1.136l-.561-.088c-1.361-.222-2.226-.382-2.226-.382l.457-.63,9.371-12.928.055-.078,8.731-12.041.326-.437.793-1.093s.477-.653,2.311-.7h.708a19.128,19.128,0,0,1,4.527.924l.424.127c6.322,1.811,16.094,1.358,16.094,1.358s6.081-.979,10.859-1.567l.356-.046a43.821,43.821,0,0,1,4.71-.408c2.911.059,9.211-1.485,9.211-1.485a6.138,6.138,0,0,0,2.689-1.08c.1-.072.209-.15.326-.235.326-.245.7-.545,1.185-.917.881-.676,2.118-1.593,4.064-2.879.17-.111.349-.222.542-.326s.437-.245.672-.362a25.49,25.49,0,0,1,5.914-1.958,34.668,34.668,0,0,1,5.147-.708h.258c4.9-.261,9.9.578,12.821,3.329a8.025,8.025,0,0,1,1.325,1.632,7.433,7.433,0,0,1,.477.888,8.325,8.325,0,0,1,.591,1.828q.036.176.059.352v.1c0,.095.02.189.026.284C284.441,610.111,280.388,613.643,275.25,616.515Z" transform="translate(-141.504 -422.203)" opacity="0.1"/><path d="M179.15,633.051s10.575,1.958,16.1,1.6c0,0,10.161.535,15.628-1.067,0,0,15.993-3.329,17.824-3.982s8.973-2.794,8.973-2.794,13.9-5.823,17.824-4.873c0,0,30.779-7.961,28.579-18.715s-21.627-8.317-27.743-4.279-5.222,4.459-8.258,5.111c0,0-6.3,1.544-9.211,1.485s-15.925,2.02-15.925,2.02-10.219.477-16.516-1.485-7.546-.238-7.546-.238Z" transform="translate(-141.504 -420.702)" fill="#ffa2a2"/><path d="M142.873,474.274a.16.16,0,0,1,0,.039,2.2,2.2,0,0,1-.186.7c-1.253,3.075-8.369,11.368-8.369,11.368a22.715,22.715,0,0,1-1.172,2.879,44.141,44.141,0,0,1-3.378,5.728,77.557,77.557,0,0,1-6.146,7.791h-.016a9.333,9.333,0,0,1-.878.578,7.266,7.266,0,0,1-3.006,1.09,3.13,3.13,0,0,1-.555-.016,1.712,1.712,0,0,0,.326-.046l-.4-.118-.545-.17q-1.371-.431-2.719-.943l-.545-.209q-1.306-.5-2.556-1.08l-.545-.248q-1.306-.607-2.556-1.283c-.3-.157-.6-.326-.891-.486q-1.332-.744-2.611-1.56-1.358-.865-2.657-1.8c-.653-1.211-1.191-2.285-1.485-2.862a7.962,7.962,0,0,1-.516-3.724,1.773,1.773,0,0,1,.02-.326c.055-.7.14-1.178.14-1.178a16.775,16.775,0,0,1-1.306-2.037,2.4,2.4,0,0,1-.366-1.172,1.39,1.39,0,0,0-.046-.5,11.578,11.578,0,0,0-2.33-3.917c-.744-.819-.79-3.881-.718-6.051.042-1.306.124-2.265.124-2.265a.76.76,0,0,1-.31-.4,9.7,9.7,0,0,1-.529-2.213,2.307,2.307,0,0,0-.046-.326c-.209-1.5-.3-3-.3-3a11.383,11.383,0,0,1-4.1-6.952l-.069-.326a20.563,20.563,0,0,1-.372-4.569v-.408s.32-7.073,1.214-9.834c.036-.117.075-.225.114-.326a2.444,2.444,0,0,1,.255-.493,6.078,6.078,0,0,0,.751-2.223c.134-.672.245-1.42.326-2.164.075-.62.134-1.237.18-1.808.127-1.528.166-2.719.166-2.719l-.6-2.977c-.166-.813-.294-1.632-.382-2.451a2.867,2.867,0,0,0-.039-.326,27.582,27.582,0,0,1-.082-4.553,1.809,1.809,0,0,1,.02-.326,27.6,27.6,0,0,1,2.663-9.955l.163-.326q.326-.653.685-1.283c.173-.31.356-.617.545-.92a26.922,26.922,0,0,1,1.632-2.353c.085-.111.173-.219.261-.326a26.593,26.593,0,0,1,3.381-3.486c3.3-2.833,6.322-4.064,9.07-4.158,12.018-.424,18.758,20.83,19.848,24.555.1.359.157.555.157.555s4.87,4.873,3.443,7.011a3.679,3.679,0,0,0-.493,1.541c-.392,2.876.731,7.612.731,7.612s.4,1.306,1.56,4.432l.343.914a18.769,18.769,0,0,1,.48,8.189c-.4,2.82-1.345,5.314-2.856,5.953-3.091,1.306-2.259,2.611-1.547,3.685A14.668,14.668,0,0,1,134.3,468.1c.447,1.2.862,2.471,1.018,2.964.046.137.069.212.069.212a6.454,6.454,0,0,1,1.341-.359c.584-.082,1.162-.023,1.273.477.059.268.395.584.868.9A25.07,25.07,0,0,0,142.873,474.274Z" transform="translate(-82.294 -289.839)" opacity="0.1"/><path d="M140.7,474.274h0a2.151,2.151,0,0,1-.186.718c-1.247,3.078-8.369,11.391-8.369,11.391a23.205,23.205,0,0,1-1.172,2.879,41.581,41.581,0,0,1-2.667,4.658,76.754,76.754,0,0,1-6.782,8.78l-.075.082s-.287.219-.744.5a8.487,8.487,0,0,1-2.66,1.116l-.4-.117-.545-.17q-1.371-.431-2.719-.943l-.545-.209q-1.306-.5-2.556-1.08l-.545-.248q-1.306-.607-2.556-1.283c-.3-.157-.6-.326-.891-.486q-1.332-.744-2.611-1.56-1.358-.865-2.657-1.8-.6-.431-1.188-.885c-.441-.836-.793-1.541-1.012-1.978a7.961,7.961,0,0,1-.516-3.724,1.774,1.774,0,0,1,.02-.326c.055-.7.14-1.178.14-1.178s-.264-.356-.584-.839c-.18-.268-.372-.578-.545-.885a3.028,3.028,0,0,1-.532-1.485.728.728,0,0,0,0-.17,1.582,1.582,0,0,0-.049-.326,11.592,11.592,0,0,0-2.334-3.917c-.744-.819-.79-3.881-.721-6.051V474.4c.046-1.126.114-1.939.114-1.939-.369-.16-.653-1.345-.836-2.611l-.049-.326c-.209-1.5-.3-3-.3-3a11.363,11.363,0,0,1-4.1-6.952,19.929,19.929,0,0,1-.424-5.222v-.082s.281-7.109,1.175-9.873c.036-.117.075-.225.114-.326a2.445,2.445,0,0,1,.29-.477,11,11,0,0,0,1.041-4.06l.039-.326c.271-2.285.346-4.527.346-4.527l-.607-2.977q-.248-1.224-.382-2.451c-.016-.108-.026-.219-.039-.326A27.591,27.591,0,0,1,91,424.371a1.555,1.555,0,0,1,.023-.326,27.531,27.531,0,0,1,2.663-9.955c.052-.111.1-.219.163-.326a25.575,25.575,0,0,1,1.4-2.468c.176-.277.356-.552.545-.823.3-.431.607-.855.93-1.266l.261-.326a26.629,26.629,0,0,1,3.352-3.476c3.59-3.078,6.854-4.266,9.792-4.158,11.571.415,18.066,20.906,19.133,24.555.1.359.157.555.157.555s4.873,4.873,3.447,7.011a3.678,3.678,0,0,0-.493,1.541c-.395,2.876.731,7.612.731,7.612s.4,1.306,1.56,4.432c.1.29.219.594.326.914a18.769,18.769,0,0,1,.48,8.189c-.4,2.823-1.341,5.314-2.856,5.953-3.088,1.306-2.259,2.611-1.544,3.685a14.67,14.67,0,0,1,1.054,2.409c.565,1.537,1.084,3.176,1.084,3.176a6.359,6.359,0,0,1,.653-.212,3.339,3.339,0,0,1,1.41-.147.623.623,0,0,1,.558.477c.088.392.764.878,1.583,1.338a30.235,30.235,0,0,0,3.287,1.541Z" transform="translate(-80.833 -289.838)" fill="#ced7e7"/><path d="M115.61,513.7c1.129-.059,13.252-4.752,15.749-3.15s17.952,12,17.952,12-9.684-12.654-18.121-15.624S115.61,513.7,115.61,513.7Z" transform="translate(-98.703 -360.651)" opacity="0.1"/><path d="M169,587.46s12.122,2.435,13.963,4.1Z" transform="translate(-134.666 -415.278)" opacity="0.1"/><path d="M153.105,643c-.176.18-4.57,10.04-4.217,10.04s4.1-5.875,4.1-5.875Z" transform="translate(-121.106 -452.69)" opacity="0.1"/><path d="M180.59,606.75s-3.564,1.25-3.15,1.368S180.47,607.285,180.59,606.75Z" transform="translate(-140.33 -428.271)" opacity="0.1"/><path d="M176.24,652.45c.594,1.247,2.494,4.991,2.911,4.4S176.24,652.45,176.24,652.45Z" transform="translate(-139.543 -459.055)" opacity="0.1"/><path d="M247.621,303.331l-.509.725s-4.044-2.849-5.705-4.276-5.585,5.108-8.676,6.89-8.316,2.259-8.316,2.259-4.041-4.041-3.917-5.222-1.9-1.544-2.02-2.376a11.82,11.82,0,0,0-1.782-4.4c-.5-.627-.574-2.588-.529-4.3.326-.065.529-.1.529-.1a10.637,10.637,0,0,1,1.9-2.5c1.071-.95,2.732-6.773,2.732-6.773.95-3.208,2.849-2.259,2.849-2.259,0,4.873,4.994,6.655,7.487,8.676s6.417,7.249,9.508,8.32C243.71,298.869,246.677,302.215,247.621,303.331Z" transform="translate(-166.43 -208.762)" opacity="0.1"/><path d="M247.587,301.143l-.509.728s-4.06-2.843-5.722-4.279-5.585,5.108-8.676,6.89-8.316,2.262-8.316,2.262-4.041-4.044-3.917-5.222-1.9-1.544-2.02-2.379a11.8,11.8,0,0,0-1.782-4.4c-.5-.627-.574-2.588-.529-4.3l.529-.1a10.637,10.637,0,0,1,1.9-2.5c1.071-.953,2.732-6.773,2.732-6.773.95-3.208,2.849-2.262,2.849-2.262,0,4.873,4.994,6.658,7.487,8.679s6.417,7.246,9.508,8.317C243.677,296.694,246.644,300.027,247.587,301.143Z" transform="translate(-166.396 -207.289)" fill="#ced7e7"/><path d="M298.408,349a19,19,0,0,1-6.237,2.079,5.14,5.14,0,0,1-1.071-.062h0a16.268,16.268,0,0,1,5.823-2.716Z" transform="translate(-216.914 -254.178)" opacity="0.1"/><path d="M323.215,375.449s-4.416-1.72-5.875.868c.049-1.188.069-2.174.069-2.174l4.814-.953s.464.858,1.005,2.014C323.215,375.357,323.215,375.449,323.215,375.449Z" transform="translate(-234.589 -270.944)" opacity="0.1"/><path d="M291.1,350.585s5.291-3.176,7.833-2.908c2.667.277,7.833.473,7.833.473s-1.782,4.041-1.544,4.873a41.767,41.767,0,0,1,.3,4.873s-5.346-2.079-6.237,1.782c0,0-2.911-4.338-4.873-5.647a13.343,13.343,0,0,1-3.31-3.447Z" transform="translate(-216.914 -253.747)" fill="#63667e"/><path d="M342.328,327.447c-1.544,0-7.011-3.45-8.2-5.705s-2.853.235-4.4,1.071c-.979.535-4.86-.584-6.952-1.4,1.061-.721,3.411-2.751,4.1-3.238.829-.6,1.665-10.223,1.665-10.223,2.97-1.544,6.179,12.478,6.179,12.478s5.588,1.665,6.061,2.853a4.268,4.268,0,0,0,1.146,1.159C342.582,326.089,342.941,327.447,342.328,327.447Z" transform="translate(-238.254 -226.921)" opacity="0.1"/><path d="M343.917,325.277c-1.544,0-7.011-3.447-8.2-5.7s-2.853.235-4.4,1.067c-.979.535-4.09-.5-6.182-1.306,1.061-.718,2.641-2.833,3.329-3.323.829-.594,1.665-10.219,1.665-10.219,2.97-1.544,6.179,12.478,6.179,12.478s5.588,1.665,6.061,2.853a4.268,4.268,0,0,0,1.146,1.159C344.172,323.92,344.531,325.277,343.917,325.277Z" transform="translate(-239.843 -225.466)" fill="#ced7e7"/><path d="M446.821,594.435l51.671-43.084a2.768,2.768,0,0,1,1.847-.653l19.277.506s1.335.979-.623,3.12l-48.744,40a3.1,3.1,0,0,1-1.86.7l-21.079.7a.728.728,0,0,1-.49-1.286Z" transform="translate(-321.632 -390.514)" fill="#600022"/><path d="M523.94,622.585s11.287,16.163,23.827,1.129,8.914-22.932,5.111-23.35S527.68,616.406,523.94,622.585Z" transform="translate(-373.756 -423.965)" fill="#ffa2a2"/><path d="M757.17,77.774S771.717,49.541,788.912,64.1a5.42,5.42,0,0,1,3.47,5.337s-1.446-.793-2.595,2.239a14.644,14.644,0,0,1-1.632,3.045,7.18,7.18,0,0,1-3.623,2.735h0s-7.716,5.78-22.009,1.322c0,0-4.041.581-4.694.078l4.7-3.434s2.386,3.541,5.875,3.946c0,0-5.875-3.688-5.2-4.488.137-.163,2.572-1.707,2.572-1.707s4.175,6.139,9.586,6.593c0,0-7.582-3.457-8.669-7.181l3.809-2.125s4.093,6.707,10.239,7.458c0,0-7.8-3.887-9.374-7.866l4.031-1.573s4.122,6.463,9.237,7.053c0,0-8.558-5.4-8.29-7.354,0,0,3.789-1.221,4.951-1.061,0,0,3.065,4.57,6.068,4.651,0,0-5.337-4.217-4.984-4.867,0,0,5.359-.277,8.16,1.018a16.243,16.243,0,0,0-8.16-1.857,8.927,8.927,0,0,1,4.354-2.712s-2.954-1.214-5.653,2.794c0,0-4.168.382-4.684.845,0,0,2.109-4.335,4.7-6.179,0,0-3.868.682-5.784,6.557l-4.086,1.492s2.484-5.875,4.674-7.69c0,0-3.838,1.306-5.673,8.16l-3.76,2.043s1.753-5.222,3.754-7.771c0,0-3.3,1.978-4.811,8.395l-2.35,1.655s1.348-3.793,1.834-4.847.242-1.273.242-1.273a13.666,13.666,0,0,0-3.078,6.779S757.441,78.035,757.17,77.774Z" transform="translate(-530.861 -59.93)" fill="#f50057"/><path d="M941.5,144.218s6.574-12.759,14.342-6.179a2.443,2.443,0,0,1,1.567,2.409s-.653-.356-1.172,1.015a6.527,6.527,0,0,1-.731,1.374,3.264,3.264,0,0,1-1.632,1.237h0s-3.489,2.611-9.948.6a6.477,6.477,0,0,1-2.118.036l2.122-1.554a4.326,4.326,0,0,0,2.657,1.782s-2.65-1.665-2.35-2.027c.059-.072,1.159-.77,1.159-.77s1.887,2.774,4.335,2.98c0,0-3.427-1.563-3.917-3.264l1.723-.956s1.847,3.032,4.625,3.372c0,0-3.525-1.756-4.243-3.554l1.821-.712s1.86,2.921,4.171,3.189c0,0-3.868-2.441-3.744-3.323a9.436,9.436,0,0,1,2.236-.48s1.384,2.066,2.742,2.1c0,0-2.412-1.9-2.252-2.2a10.154,10.154,0,0,1,3.682.46,7.318,7.318,0,0,0-3.682-.839,4.044,4.044,0,0,1,1.958-1.227s-1.335-.548-2.556,1.263a9.317,9.317,0,0,0-2.115.382,8.851,8.851,0,0,1,2.125-2.791s-1.749.307-2.611,2.964l-1.828.685a12.525,12.525,0,0,1,2.112-3.476s-1.736.591-2.565,3.685l-1.7.92a14.934,14.934,0,0,1,1.694-3.512s-1.492.894-2.171,3.793l-1.064.747s.61-1.714.829-2.19.108-.574.108-.574a6.2,6.2,0,0,0-1.39,3.071A15.2,15.2,0,0,1,941.5,144.218Z" transform="translate(-655.027 -111.275)" fill="#f50057"/><path d="M723.27,189.7s6.574-12.759,14.361-6.179a2.449,2.449,0,0,1,1.567,2.412s-.653-.359-1.172,1.012a6.667,6.667,0,0,1-.731,1.374,3.264,3.264,0,0,1-1.648,1.237h0s-3.486,2.611-9.945.6c0,0-1.825.264-2.118.036l2.122-1.554a4.338,4.338,0,0,0,2.654,1.785s-2.65-1.668-2.35-2.03c.062-.072,1.162-.77,1.162-.77s1.887,2.774,4.331,2.98c0,0-3.424-1.563-3.917-3.264l1.723-.953s1.851,3.029,4.628,3.368c0,0-3.525-1.756-4.243-3.554l1.821-.712s1.864,2.921,4.175,3.189c0,0-3.868-2.441-3.747-3.323a9.47,9.47,0,0,1,2.239-.48s1.384,2.066,2.742,2.1c0,0-2.412-1.906-2.252-2.2a10.16,10.16,0,0,1,3.682.46,7.336,7.336,0,0,0-3.685-.839,4.044,4.044,0,0,1,1.958-1.227s-1.332-.548-2.552,1.263a9.317,9.317,0,0,0-2.115.382,8.8,8.8,0,0,1,2.125-2.791s-1.749.307-2.611,2.964l-1.851.685a12.56,12.56,0,0,1,2.112-3.473s-1.733.588-2.562,3.682l-1.7.92a14.994,14.994,0,0,1,1.7-3.512s-1.492.894-2.174,3.793l-1.064.747s.61-1.714.829-2.19.111-.574.111-.574a6.169,6.169,0,0,0-1.39,3.071A15.113,15.113,0,0,1,723.27,189.7Z" transform="translate(-508.026 -141.911)" fill="#f50057"/></g></svg>