<?xml version="1.0" encoding="UTF-8" ?>
<!DOCTYPE svg PUBLIC "-//W3C//DTD SVG 1.1//EN" "http://www.w3.org/Graphics/SVG/1.1/DTD/svg11.dtd">
<svg width="500pt" height="500pt" viewBox="0 0 500 500" version="1.1" xmlns="http://www.w3.org/2000/svg">
<path fill="#ffffff" stroke="#ffffff" stroke-width="0.09375" opacity="1.00" d=" M 244.37 26.32 C 246.24 22.32 250.75 20.32 255.00 20.52 C 287.00 20.54 318.99 20.52 350.98 20.53 C 355.76 20.34 360.75 23.33 361.83 28.19 C 363.19 31.99 361.65 36.17 359.07 39.06 C 343.05 58.33 326.90 77.51 311.01 96.89 C 319.33 97.00 327.66 96.88 335.98 96.94 C 338.93 97.06 342.15 97.54 344.41 99.64 C 348.99 103.55 349.05 111.47 344.46 115.42 C 330.74 128.01 316.56 140.11 302.97 152.83 C 323.51 158.84 342.92 168.42 360.49 180.60 C 368.99 146.06 385.94 113.34 410.73 87.68 C 428.28 69.87 450.33 55.65 475.10 50.67 C 479.78 49.85 484.91 48.04 489.40 50.50 C 492.69 52.02 494.57 55.44 494.94 58.94 C 498.52 84.78 496.41 111.30 489.61 136.45 C 483.95 158.37 474.77 179.40 462.36 198.34 C 451.17 215.59 437.20 231.22 420.39 243.16 C 433.99 264.90 443.56 289.44 446.25 315.04 C 448.53 336.19 444.54 357.80 435.92 377.18 C 422.84 406.09 399.60 429.47 372.75 445.90 C 353.54 457.74 332.35 466.25 310.45 471.60 C 261.92 483.88 209.62 480.71 162.89 462.76 C 139.34 453.71 117.33 440.42 98.87 423.16 C 78.44 403.86 62.73 378.87 57.17 351.09 C 51.35 324.97 56.13 297.62 65.90 273.06 C 70.09 262.69 75.27 252.75 81.22 243.28 C 67.81 233.71 56.14 221.84 46.31 208.65 C 26.81 182.60 14.03 151.81 8.13 119.86 C 4.43 99.51 3.64 78.55 6.72 58.06 C 7.19 54.23 10.04 50.96 13.71 49.83 C 17.91 48.36 22.31 50.04 26.51 50.70 C 51.14 55.68 73.07 69.79 90.57 87.48 C 115.46 113.21 132.60 146.04 140.99 180.75 C 164.98 164.23 192.35 152.46 221.15 147.67 C 223.02 143.98 224.83 140.26 226.68 136.57 C 217.13 136.35 207.54 136.84 198.00 136.32 C 190.83 135.66 186.90 126.51 190.67 120.60 C 208.55 89.16 226.46 57.73 244.37 26.32 M 247.20 31.23 C 230.55 60.55 213.84 89.83 197.13 119.12 C 196.01 121.32 194.23 123.38 194.13 125.95 C 193.96 129.06 196.86 131.85 199.96 131.62 C 211.50 131.69 223.05 131.61 234.60 131.65 C 231.12 138.44 227.92 145.37 224.37 152.12 C 193.00 156.78 163.30 170.21 137.93 189.07 C 129.81 150.57 111.15 113.73 82.45 86.50 C 64.72 69.88 42.41 57.15 18.00 54.22 C 14.92 53.58 11.83 56.03 11.57 59.12 C 6.64 94.72 12.53 131.47 26.57 164.45 C 39.74 194.99 60.03 223.31 87.94 241.96 C 72.04 266.04 60.78 293.94 59.63 323.03 C 58.60 348.27 66.60 373.43 80.72 394.24 C 97.49 419.12 121.86 438.20 148.68 451.25 C 176.87 464.93 207.99 472.26 239.25 473.68 C 283.13 475.65 327.96 466.33 366.10 444.16 C 392.49 428.81 415.75 406.90 429.44 379.34 C 439.13 360.17 443.37 338.34 441.50 316.93 C 439.08 290.02 428.50 264.31 413.68 241.90 C 443.67 221.66 464.96 190.53 477.90 157.12 C 489.70 126.31 494.38 92.59 490.06 59.80 C 489.83 58.04 489.24 56.18 487.67 55.17 C 485.42 53.44 482.42 54.40 479.87 54.67 C 454.36 58.90 431.54 73.34 413.75 91.70 C 388.07 118.39 371.27 152.89 363.53 188.95 C 342.54 173.04 318.32 161.33 292.71 155.12 C 308.65 140.93 324.51 126.65 340.45 112.46 C 341.73 111.29 343.02 109.84 342.93 107.98 C 343.42 104.61 340.32 101.72 337.05 101.89 C 324.82 101.78 312.58 101.89 300.34 101.84 C 318.65 79.91 336.88 57.92 355.19 35.99 C 356.34 34.54 357.64 32.94 357.44 30.96 C 357.40 27.67 354.15 25.13 350.95 25.55 C 318.64 25.56 286.32 25.51 254.01 25.57 C 250.45 25.19 248.62 28.58 247.20 31.23 Z" />
<path fill="#2e3337" stroke="#2e3337" stroke-width="0.09375" opacity="1.00" d=" M 247.20 31.23 C 248.62 28.58 250.45 25.19 254.01 25.57 C 286.32 25.51 318.64 25.56 350.95 25.55 C 354.15 25.13 357.40 27.67 357.44 30.96 C 357.64 32.94 356.34 34.54 355.19 35.99 C 336.88 57.92 318.65 79.91 300.34 101.84 C 312.58 101.89 324.82 101.78 337.05 101.89 C 340.32 101.72 343.42 104.61 342.93 107.98 C 343.02 109.84 341.73 111.29 340.45 112.46 C 324.51 126.65 308.65 140.93 292.71 155.12 C 318.32 161.33 342.54 173.04 363.53 188.95 C 371.27 152.89 388.07 118.39 413.75 91.70 C 431.54 73.34 454.36 58.90 479.87 54.67 C 482.42 54.40 485.42 53.44 487.67 55.17 C 489.24 56.18 489.83 58.04 490.06 59.80 C 494.38 92.59 489.70 126.31 477.90 157.12 C 464.96 190.53 443.67 221.66 413.68 241.90 C 428.50 264.31 439.08 290.02 441.50 316.93 C 443.37 338.34 439.13 360.17 429.44 379.34 C 415.75 406.90 392.49 428.81 366.10 444.16 C 327.96 466.33 283.13 475.65 239.25 473.68 C 207.99 472.26 176.87 464.93 148.68 451.25 C 121.86 438.20 97.49 419.12 80.72 394.24 C 66.60 373.43 58.60 348.27 59.63 323.03 C 60.78 293.94 72.04 266.04 87.94 241.96 C 60.03 223.31 39.74 194.99 26.57 164.45 C 12.53 131.47 6.64 94.72 11.57 59.12 C 11.83 56.03 14.92 53.58 18.00 54.22 C 42.41 57.15 64.72 69.88 82.45 86.50 C 111.15 113.73 129.81 150.57 137.93 189.07 C 163.30 170.21 193.00 156.78 224.37 152.12 C 227.92 145.37 231.12 138.44 234.60 131.65 C 223.05 131.61 211.50 131.69 199.96 131.62 C 196.86 131.85 193.96 129.06 194.13 125.95 C 194.23 123.38 196.01 121.32 197.13 119.12 C 213.84 89.83 230.55 60.55 247.20 31.23 M 257.07 36.81 C 251.88 45.84 246.77 54.90 241.59 63.93 C 230.84 82.72 220.17 101.56 209.42 120.34 C 220.61 120.41 231.80 120.32 242.99 120.37 C 247.31 119.82 250.85 124.81 248.56 128.64 C 245.05 135.99 241.37 143.27 237.75 150.58 C 251.48 149.65 265.30 150.23 278.89 152.36 C 283.20 148.52 287.50 144.68 291.76 140.79 C 302.07 131.65 312.29 122.41 322.59 113.25 C 310.20 112.90 297.77 113.70 285.41 112.82 C 282.91 110.64 281.41 106.77 283.94 104.00 C 294.90 90.64 306.06 77.43 317.07 64.11 C 324.62 55.00 332.21 45.91 339.77 36.80 C 312.20 36.81 284.64 36.79 257.07 36.81 M 372.34 203.91 C 372.12 207.19 368.90 208.53 366.13 209.04 C 362.76 207.86 360.65 204.81 361.13 201.21 C 326.66 173.83 282.17 158.20 237.97 161.87 C 202.40 164.62 168.22 179.15 140.37 201.24 C 140.88 204.90 138.70 207.96 135.26 209.04 C 132.56 208.50 129.45 207.10 129.17 203.97 C 123.39 164.85 106.33 126.96 78.62 98.48 C 78.84 105.66 79.07 112.88 78.09 120.02 C 77.09 128.31 74.21 137.12 67.04 142.10 C 56.29 147.97 43.66 145.50 32.03 147.48 C 44.25 181.61 65.27 213.91 96.16 233.82 C 99.77 236.32 103.91 237.96 107.49 240.50 C 109.44 242.13 109.05 244.84 108.89 247.09 C 107.25 248.59 105.40 250.56 102.92 250.09 C 100.93 249.60 99.15 248.54 97.33 247.64 C 85.68 265.39 76.78 285.14 72.81 306.07 C 68.06 329.90 71.82 355.22 83.27 376.64 C 97.58 403.94 121.97 424.84 149.06 438.89 C 175.92 452.78 205.84 460.37 235.96 462.24 C 279.12 464.86 323.49 456.06 361.02 434.16 C 386.15 419.45 408.31 398.33 420.69 371.67 C 430.27 351.40 433.01 328.11 428.69 306.13 C 424.74 285.16 415.83 265.36 404.13 247.61 C 402.14 248.59 400.22 249.83 398.01 250.20 C 395.76 250.15 394.16 248.49 392.60 247.12 C 392.58 245.41 392.07 243.55 392.94 241.96 C 393.79 240.15 395.76 239.34 397.40 238.39 C 407.60 233.09 416.89 226.11 425.19 218.17 C 445.48 198.71 460.07 173.85 469.47 147.48 C 457.80 145.49 445.11 147.98 434.33 142.03 C 430.82 139.32 427.90 135.83 426.32 131.65 C 422.15 121.16 422.61 109.63 422.81 98.55 C 395.14 127.00 378.12 164.85 372.34 203.91 Z" />
<path fill="#ffd500" stroke="#ffd500" stroke-width="0.09375" opacity="1.00" d=" M 257.07 36.81 C 284.64 36.79 312.20 36.81 339.77 36.80 C 332.21 45.91 324.62 55.00 317.07 64.11 C 291.91 64.01 266.74 64.34 241.59 63.93 C 246.77 54.90 251.88 45.84 257.07 36.81 Z" />
<path fill="#ffb100" stroke="#ffb100" stroke-width="0.09375" opacity="1.00" d=" M 209.42 120.34 C 220.17 101.56 230.84 82.72 241.59 63.93 C 266.74 64.34 291.91 64.01 317.07 64.11 C 306.06 77.43 294.90 90.64 283.94 104.00 C 281.41 106.77 282.91 110.64 285.41 112.82 C 278.00 122.03 270.14 130.86 262.87 140.18 C 272.49 140.79 282.15 139.91 291.76 140.79 C 287.50 144.68 283.20 148.52 278.89 152.36 C 265.30 150.23 251.48 149.65 237.75 150.58 C 241.37 143.27 245.05 135.99 248.56 128.64 C 250.85 124.81 247.31 119.82 242.99 120.37 C 231.80 120.32 220.61 120.41 209.42 120.34 Z" />
<path fill="#ffd500" stroke="#ffd500" stroke-width="0.09375" opacity="1.00" d=" M 372.34 203.91 C 378.12 164.85 395.14 127.00 422.81 98.55 C 422.61 109.63 422.15 121.16 426.32 131.65 C 427.90 135.83 430.82 139.32 434.33 142.03 C 419.20 167.59 403.58 192.85 388.30 218.32 C 381.88 228.73 375.76 239.33 369.11 249.60 C 356.96 235.05 333.06 233.20 318.88 245.81 C 304.62 257.11 301.92 279.72 312.77 294.24 C 322.09 307.78 341.19 313.15 356.19 306.41 C 370.63 300.46 379.97 284.37 377.74 268.87 C 377.13 263.50 375.16 258.35 372.27 253.80 C 379.08 251.67 385.96 249.75 392.60 247.12 C 394.16 248.49 395.76 250.15 398.01 250.20 C 400.22 249.83 402.14 248.59 404.13 247.61 C 415.83 265.36 424.74 285.16 428.69 306.13 C 422.15 311.77 417.01 318.76 411.14 325.06 C 405.95 330.63 400.77 336.24 395.06 341.29 C 394.75 340.10 394.46 338.92 394.18 337.74 C 393.26 331.22 390.58 324.81 385.57 320.38 C 377.49 312.65 364.35 311.14 354.69 316.74 C 346.33 321.28 341.12 330.58 341.11 340.04 C 340.96 352.65 350.92 364.01 363.26 366.07 C 334.91 383.51 302.18 393.42 269.02 395.61 C 223.94 398.94 177.05 390.36 138.47 366.02 C 150.74 363.88 160.51 352.52 160.43 340.00 C 160.23 332.87 157.50 325.74 152.25 320.81 C 145.05 313.64 133.55 311.37 124.14 315.21 C 115.50 318.52 109.03 326.69 107.72 335.85 C 107.37 337.88 107.05 339.92 106.72 341.97 C 100.83 336.30 95.15 330.41 89.71 324.31 C 84.12 318.19 78.97 311.64 72.81 306.07 C 76.78 285.14 85.68 265.39 97.33 247.64 C 99.15 248.54 100.93 249.60 102.92 250.09 C 105.40 250.56 107.25 248.59 108.89 247.09 C 115.51 249.79 122.35 251.90 129.31 253.49 C 122.87 263.49 121.59 276.67 126.41 287.61 C 132.41 302.01 148.49 311.23 163.95 309.03 C 180.50 307.24 194.44 292.61 195.33 275.98 C 196.78 260.28 186.50 244.55 171.62 239.46 C 158.10 234.39 141.89 238.61 132.46 249.51 C 128.75 244.43 125.71 238.92 122.45 233.55 C 103.99 203.06 85.54 172.57 67.04 142.10 C 74.21 137.12 77.09 128.31 78.09 120.02 C 79.07 112.88 78.84 105.66 78.62 98.48 C 106.33 126.96 123.39 164.85 129.17 203.97 C 129.45 207.10 132.56 208.50 135.26 209.04 C 135.71 213.20 136.17 217.36 136.70 221.52 C 169.68 204.38 206.85 196.35 243.87 195.53 C 279.33 194.74 315.26 200.11 348.13 213.77 C 353.81 216.08 359.23 218.96 364.90 221.31 C 365.34 217.22 365.75 213.13 366.13 209.04 C 368.90 208.53 372.12 207.19 372.34 203.91 M 242.00 271.90 C 233.14 273.41 224.46 276.77 217.33 282.31 C 214.79 284.43 212.00 286.77 211.15 290.11 C 211.77 292.70 214.64 293.56 216.89 294.20 C 221.69 295.35 226.63 295.72 231.53 296.22 C 229.84 298.72 229.87 302.59 232.56 304.39 C 236.56 306.88 240.98 308.62 245.11 310.89 C 244.97 315.37 245.94 320.83 242.15 324.16 C 239.05 327.56 234.13 326.95 229.99 326.91 C 225.45 327.16 220.98 323.66 220.35 319.12 C 219.84 316.82 219.90 313.93 217.61 312.57 C 214.52 310.20 209.64 312.22 208.90 315.97 C 208.08 324.51 213.49 333.08 221.32 336.45 C 226.22 338.71 231.77 338.32 237.02 338.15 C 242.26 337.91 246.99 335.22 250.74 331.70 C 254.39 335.08 258.91 337.75 263.97 338.10 C 270.83 338.57 278.42 338.65 284.11 334.18 C 289.72 330.09 293.24 323.02 292.61 316.06 C 291.99 312.11 286.75 310.18 283.67 312.70 C 281.61 314.08 281.66 316.77 281.17 318.94 C 280.65 323.37 276.44 326.96 272.00 326.89 C 267.60 326.98 262.33 327.63 259.09 323.94 C 255.55 320.52 256.62 315.25 256.45 310.85 C 260.46 308.69 264.67 306.93 268.60 304.63 C 271.64 302.86 271.78 298.62 269.79 295.99 C 275.19 295.82 280.65 295.34 285.86 293.84 C 287.72 293.21 290.25 292.36 290.27 289.98 C 289.53 286.77 286.93 284.49 284.46 282.53 C 272.51 273.47 256.82 269.37 242.00 271.90 Z" />
<path fill="#ffd500" stroke="#ffd500" stroke-width="0.09375" opacity="1.00" d=" M 285.41 112.82 C 297.77 113.70 310.20 112.90 322.59 113.25 C 312.29 122.41 302.07 131.65 291.76 140.79 C 282.15 139.91 272.49 140.79 262.87 140.18 C 270.14 130.86 278.00 122.03 285.41 112.82 Z" />
<path fill="#ffb100" stroke="#ffb100" stroke-width="0.09375" opacity="1.00" d=" M 32.03 147.48 C 43.66 145.50 56.29 147.97 67.04 142.10 C 85.54 172.57 103.99 203.06 122.45 233.55 C 125.71 238.92 128.75 244.43 132.46 249.51 C 131.34 250.77 130.29 252.11 129.31 253.49 C 122.35 251.90 115.51 249.79 108.89 247.09 C 109.05 244.84 109.44 242.13 107.49 240.50 C 103.91 237.96 99.77 236.32 96.16 233.82 C 65.27 213.91 44.25 181.61 32.03 147.48 Z" />
<path fill="#ffb100" stroke="#ffb100" stroke-width="0.09375" opacity="1.00" d=" M 434.33 142.03 C 445.11 147.98 457.80 145.49 469.47 147.48 C 460.07 173.85 445.48 198.71 425.19 218.17 C 416.89 226.11 407.60 233.09 397.40 238.39 C 395.76 239.34 393.79 240.15 392.94 241.96 C 392.07 243.55 392.58 245.41 392.60 247.12 C 385.96 249.75 379.08 251.67 372.27 253.80 C 371.29 252.34 370.24 250.94 369.11 249.60 C 375.76 239.33 381.88 228.73 388.30 218.32 C 403.58 192.85 419.20 167.59 434.33 142.03 Z" />
<path fill="#fff800" stroke="#fff800" stroke-width="0.09375" opacity="1.00" d=" M 140.37 201.24 C 168.22 179.15 202.40 164.62 237.97 161.87 C 282.17 158.20 326.66 173.83 361.13 201.21 C 360.65 204.81 362.76 207.86 366.13 209.04 C 365.75 213.13 365.34 217.22 364.90 221.31 C 359.23 218.96 353.81 216.08 348.13 213.77 C 315.26 200.11 279.33 194.74 243.87 195.53 C 206.85 196.35 169.68 204.38 136.70 221.52 C 136.17 217.36 135.71 213.20 135.26 209.04 C 138.70 207.96 140.88 204.90 140.37 201.24 Z" />
<path fill="#2e3337" stroke="#2e3337" stroke-width="0.09375" opacity="1.00" d=" M 132.46 249.51 C 141.89 238.61 158.10 234.39 171.62 239.46 C 186.50 244.55 196.78 260.28 195.33 275.98 C 194.44 292.61 180.50 307.24 163.95 309.03 C 148.49 311.23 132.41 302.01 126.41 287.61 C 121.59 276.67 122.87 263.49 129.31 253.49 C 130.29 252.11 131.34 250.77 132.46 249.51 M 141.35 257.48 C 136.46 259.62 136.50 267.32 141.39 269.45 C 146.08 272.26 152.45 267.06 150.90 261.93 C 150.00 257.93 145.02 255.34 141.35 257.48 M 136.65 283.01 C 140.50 291.68 149.40 298.06 159.02 297.92 C 168.92 298.41 178.31 291.98 182.23 283.02 C 172.87 281.66 163.54 278.51 153.99 279.96 C 148.20 280.91 142.46 282.17 136.65 283.01 Z" />
<path fill="#2e3337" stroke="#2e3337" stroke-width="0.09375" opacity="1.00" d=" M 318.88 245.81 C 333.06 233.20 356.96 235.05 369.11 249.60 C 370.24 250.94 371.29 252.34 372.27 253.80 C 375.16 258.35 377.13 263.50 377.74 268.87 C 379.97 284.37 370.63 300.46 356.19 306.41 C 341.19 313.15 322.09 307.78 312.77 294.24 C 301.92 279.72 304.62 257.11 318.88 245.81 M 323.45 257.74 C 318.85 260.24 319.38 267.78 324.29 269.59 C 328.60 271.79 334.14 267.78 333.65 263.04 C 333.54 258.23 327.47 254.91 323.45 257.74 M 319.24 283.00 C 323.16 291.79 332.26 298.26 342.05 297.93 C 351.85 298.29 360.85 291.76 364.89 283.05 C 355.30 281.60 345.70 278.40 335.93 280.05 C 330.36 281.03 324.83 282.19 319.24 283.00 Z" />
<path fill="#ffffff" stroke="#ffffff" stroke-width="0.09375" opacity="1.00" d=" M 141.35 257.48 C 145.02 255.34 150.00 257.93 150.90 261.93 C 152.45 267.06 146.08 272.26 141.39 269.45 C 136.50 267.32 136.46 259.62 141.35 257.48 Z" />
<path fill="#ffffff" stroke="#ffffff" stroke-width="0.09375" opacity="1.00" d=" M 323.45 257.74 C 327.47 254.91 333.54 258.23 333.65 263.04 C 334.14 267.78 328.60 271.79 324.29 269.59 C 319.38 267.78 318.85 260.24 323.45 257.74 Z" />
<path fill="#fff800" stroke="#fff800" stroke-width="0.09375" opacity="1.00" d=" M 242.00 271.90 C 256.82 269.37 272.51 273.47 284.46 282.53 C 286.93 284.49 289.53 286.77 290.27 289.98 C 290.25 292.36 287.72 293.21 285.86 293.84 C 280.65 295.34 275.19 295.82 269.79 295.99 C 268.09 294.86 266.12 294.21 264.06 294.32 C 255.01 294.35 245.96 294.31 236.91 294.34 C 234.92 294.22 233.09 295.05 231.53 296.22 C 226.63 295.72 221.69 295.35 216.89 294.20 C 214.64 293.56 211.77 292.70 211.15 290.11 C 212.00 286.77 214.79 284.43 217.33 282.31 C 224.46 276.77 233.14 273.41 242.00 271.90 Z" />
<path fill="#745c4b" stroke="#745c4b" stroke-width="0.09375" opacity="1.00" d=" M 136.65 283.01 C 142.46 282.17 148.20 280.91 153.99 279.96 C 163.54 278.51 172.87 281.66 182.23 283.02 C 178.31 291.98 168.92 298.41 159.02 297.92 C 149.40 298.06 140.50 291.68 136.65 283.01 Z" />
<path fill="#745c4b" stroke="#745c4b" stroke-width="0.09375" opacity="1.00" d=" M 319.24 283.00 C 324.83 282.19 330.36 281.03 335.93 280.05 C 345.70 278.40 355.30 281.60 364.89 283.05 C 360.85 291.76 351.85 298.29 342.05 297.93 C 332.26 298.26 323.16 291.79 319.24 283.00 Z" />
<path fill="#2e3337" stroke="#2e3337" stroke-width="0.09375" opacity="1.00" d=" M 231.53 296.22 C 233.09 295.05 234.92 294.22 236.91 294.34 C 245.96 294.31 255.01 294.35 264.06 294.32 C 266.12 294.21 268.09 294.86 269.79 295.99 C 271.78 298.62 271.64 302.86 268.60 304.63 C 264.67 306.93 260.46 308.69 256.45 310.85 C 256.62 315.25 255.55 320.52 259.09 323.94 C 262.33 327.63 267.60 326.98 272.00 326.89 C 276.44 326.96 280.65 323.37 281.17 318.94 C 281.66 316.77 281.61 314.08 283.67 312.70 C 286.75 310.18 291.99 312.11 292.61 316.06 C 293.24 323.02 289.72 330.09 284.11 334.18 C 278.42 338.65 270.83 338.57 263.97 338.10 C 258.91 337.75 254.39 335.08 250.74 331.70 C 246.99 335.22 242.26 337.91 237.02 338.15 C 231.77 338.32 226.22 338.71 221.32 336.45 C 213.49 333.08 208.08 324.51 208.90 315.97 C 209.64 312.22 214.52 310.20 217.61 312.57 C 219.90 313.93 219.84 316.82 220.35 319.12 C 220.98 323.66 225.45 327.16 229.99 326.91 C 234.13 326.95 239.05 327.56 242.15 324.16 C 245.94 320.83 244.97 315.37 245.11 310.89 C 240.98 308.62 236.56 306.88 232.56 304.39 C 229.87 302.59 229.84 298.72 231.53 296.22 Z" />
<path fill="#ffb100" stroke="#ffb100" stroke-width="0.09375" opacity="1.00" d=" M 83.27 376.64 C 71.82 355.22 68.06 329.90 72.81 306.07 C 78.97 311.64 84.12 318.19 89.71 324.31 C 95.15 330.41 100.83 336.30 106.72 341.97 C 107.05 339.92 107.37 337.88 107.72 335.85 C 107.56 337.23 107.44 338.62 107.37 340.03 C 107.29 349.95 113.42 359.47 122.36 363.70 C 127.32 366.20 133.03 366.66 138.47 366.02 C 177.05 390.36 223.94 398.94 269.02 395.61 C 302.18 393.42 334.91 383.51 363.26 366.07 C 369.03 366.71 375.08 366.05 380.21 363.16 C 388.65 358.74 394.16 349.49 394.14 339.97 C 394.15 339.41 394.17 338.30 394.18 337.74 C 394.46 338.92 394.75 340.10 395.06 341.29 C 400.77 336.24 405.95 330.63 411.14 325.06 C 417.01 318.76 422.15 311.77 428.69 306.13 C 433.01 328.11 430.27 351.40 420.69 371.67 C 408.31 398.33 386.15 419.45 361.02 434.16 C 323.49 456.06 279.12 464.86 235.96 462.24 C 205.84 460.37 175.92 452.78 149.06 438.89 C 121.97 424.84 97.58 403.94 83.27 376.64 Z" />
<path fill="#ff1313" stroke="#ff1313" stroke-width="0.09375" opacity="1.00" d=" M 124.14 315.21 C 133.55 311.37 145.05 313.64 152.25 320.81 C 157.50 325.74 160.23 332.87 160.43 340.00 C 142.74 339.92 125.05 339.95 107.37 340.03 C 107.44 338.62 107.56 337.23 107.72 335.85 C 109.03 326.69 115.50 318.52 124.14 315.21 Z" />
<path fill="#ff1313" stroke="#ff1313" stroke-width="0.09375" opacity="1.00" d=" M 354.69 316.74 C 364.35 311.14 377.49 312.65 385.57 320.38 C 390.58 324.81 393.26 331.22 394.18 337.74 C 394.17 338.30 394.15 339.41 394.14 339.97 C 376.46 339.99 358.78 339.95 341.11 340.04 C 341.12 330.58 346.33 321.28 354.69 316.74 Z" />
<path fill="#f91717" stroke="#f91717" stroke-width="0.09375" opacity="1.00" d=" M 107.37 340.03 C 125.05 339.95 142.74 339.92 160.43 340.00 C 160.51 352.52 150.74 363.88 138.47 366.02 C 133.03 366.66 127.32 366.20 122.36 363.70 C 113.42 359.47 107.29 349.95 107.37 340.03 Z" />
<path fill="#f91717" stroke="#f91717" stroke-width="0.09375" opacity="1.00" d=" M 341.11 340.04 C 358.78 339.95 376.46 339.99 394.14 339.97 C 394.16 349.49 388.65 358.74 380.21 363.16 C 375.08 366.05 369.03 366.71 363.26 366.07 C 350.92 364.01 340.96 352.65 341.11 340.04 Z" />
</svg>
